<mxfile host="app.diagrams.net" agent="Mozilla/5.0 (Windows NT 10.0; Win64; x64) AppleWebKit/537.36 (KHTML, like Gecko) Chrome/131.0.0.0 Safari/537.36 OPR/116.0.0.0" version="26.1.0">
  <diagram name="Página-1" id="xWvEk7o6bW19XIiQ1Qm3">
    <mxGraphModel dx="1390" dy="2000" grid="1" gridSize="10" guides="1" tooltips="1" connect="1" arrows="1" fold="1" page="1" pageScale="1" pageWidth="827" pageHeight="1169" math="0" shadow="0">
      <root>
        <mxCell id="0" />
        <mxCell id="1" parent="0" />
        <mxCell id="RWg0ubaqebXuxMHHFUp1-8" value="&lt;br&gt;&lt;div&gt;Usuário&lt;/div&gt;" style="shape=umlActor;verticalLabelPosition=bottom;verticalAlign=top;html=1;direction=east;" vertex="1" parent="1">
          <mxGeometry x="60" y="150" width="30" height="60" as="geometry" />
        </mxCell>
        <mxCell id="RWg0ubaqebXuxMHHFUp1-15" value="" style="edgeStyle=orthogonalEdgeStyle;rounded=0;orthogonalLoop=1;jettySize=auto;html=1;" edge="1" parent="1" source="RWg0ubaqebXuxMHHFUp1-9" target="RWg0ubaqebXuxMHHFUp1-14">
          <mxGeometry relative="1" as="geometry" />
        </mxCell>
        <mxCell id="RWg0ubaqebXuxMHHFUp1-9" value="Secretária" style="shape=umlActor;verticalLabelPosition=bottom;verticalAlign=top;html=1;outlineConnect=0;" vertex="1" parent="1">
          <mxGeometry x="60" y="330" width="30" height="60" as="geometry" />
        </mxCell>
        <mxCell id="RWg0ubaqebXuxMHHFUp1-12" value="" style="endArrow=classic;html=1;rounded=0;entryX=0;entryY=0.5;entryDx=0;entryDy=0;" edge="1" parent="1" target="RWg0ubaqebXuxMHHFUp1-19">
          <mxGeometry width="50" height="50" relative="1" as="geometry">
            <mxPoint x="100" y="200" as="sourcePoint" />
            <mxPoint x="240" y="200" as="targetPoint" />
            <Array as="points" />
          </mxGeometry>
        </mxCell>
        <mxCell id="RWg0ubaqebXuxMHHFUp1-16" style="edgeStyle=orthogonalEdgeStyle;rounded=0;orthogonalLoop=1;jettySize=auto;html=1;" edge="1" parent="1" source="RWg0ubaqebXuxMHHFUp1-14" target="RWg0ubaqebXuxMHHFUp1-17">
          <mxGeometry relative="1" as="geometry">
            <mxPoint x="370" y="380" as="targetPoint" />
          </mxGeometry>
        </mxCell>
        <mxCell id="RWg0ubaqebXuxMHHFUp1-14" value="Cadastra os Usuários e incluem no sistema da empresa" style="rounded=1;whiteSpace=wrap;html=1;" vertex="1" parent="1">
          <mxGeometry x="170" y="350" width="120" height="60" as="geometry" />
        </mxCell>
        <mxCell id="RWg0ubaqebXuxMHHFUp1-17" value="Software de reconhecimento faz a autorização das credenciais do usuário e autoriza a entrada" style="rounded=1;whiteSpace=wrap;html=1;" vertex="1" parent="1">
          <mxGeometry x="354" y="340" width="136" height="80" as="geometry" />
        </mxCell>
        <mxCell id="RWg0ubaqebXuxMHHFUp1-19" value="Solicita e Entrada por comando de voz" style="rounded=1;whiteSpace=wrap;html=1;" vertex="1" parent="1">
          <mxGeometry x="340" y="170" width="120" height="60" as="geometry" />
        </mxCell>
        <mxCell id="RWg0ubaqebXuxMHHFUp1-20" value="" style="endArrow=none;html=1;rounded=0;exitX=0.63;exitY=-0.029;exitDx=0;exitDy=0;exitPerimeter=0;" edge="1" parent="1" source="RWg0ubaqebXuxMHHFUp1-17">
          <mxGeometry width="50" height="50" relative="1" as="geometry">
            <mxPoint x="364" y="290" as="sourcePoint" />
            <mxPoint x="440" y="230" as="targetPoint" />
          </mxGeometry>
        </mxCell>
        <mxCell id="RWg0ubaqebXuxMHHFUp1-21" value="" style="endArrow=none;html=1;rounded=0;entryX=1;entryY=1;entryDx=0;entryDy=0;exitX=0.842;exitY=0.017;exitDx=0;exitDy=0;exitPerimeter=0;" edge="1" parent="1">
          <mxGeometry width="50" height="50" relative="1" as="geometry">
            <mxPoint x="441.0400000000002" y="461.02" as="sourcePoint" />
            <mxPoint x="440" y="420" as="targetPoint" />
          </mxGeometry>
        </mxCell>
        <mxCell id="RWg0ubaqebXuxMHHFUp1-22" value="Envia um aviso caso exista um novo usuário" style="rounded=1;whiteSpace=wrap;html=1;" vertex="1" parent="1">
          <mxGeometry x="380" y="460" width="120" height="60" as="geometry" />
        </mxCell>
        <mxCell id="RWg0ubaqebXuxMHHFUp1-26" value="" style="edgeStyle=orthogonalEdgeStyle;rounded=0;orthogonalLoop=1;jettySize=auto;html=1;" edge="1" parent="1" source="RWg0ubaqebXuxMHHFUp1-23" target="RWg0ubaqebXuxMHHFUp1-25">
          <mxGeometry relative="1" as="geometry" />
        </mxCell>
        <mxCell id="RWg0ubaqebXuxMHHFUp1-32" value="" style="edgeStyle=orthogonalEdgeStyle;rounded=0;orthogonalLoop=1;jettySize=auto;html=1;" edge="1" parent="1" source="RWg0ubaqebXuxMHHFUp1-23" target="RWg0ubaqebXuxMHHFUp1-31">
          <mxGeometry relative="1" as="geometry" />
        </mxCell>
        <mxCell id="RWg0ubaqebXuxMHHFUp1-23" value="Anda pelas instalações&amp;nbsp;" style="rounded=1;whiteSpace=wrap;html=1;" vertex="1" parent="1">
          <mxGeometry x="240" y="60" width="120" height="60" as="geometry" />
        </mxCell>
        <mxCell id="RWg0ubaqebXuxMHHFUp1-24" value="" style="endArrow=classic;html=1;rounded=0;entryX=0;entryY=0.75;entryDx=0;entryDy=0;" edge="1" parent="1" target="RWg0ubaqebXuxMHHFUp1-23">
          <mxGeometry width="50" height="50" relative="1" as="geometry">
            <mxPoint x="100" y="160" as="sourcePoint" />
            <mxPoint x="150" y="110" as="targetPoint" />
          </mxGeometry>
        </mxCell>
        <mxCell id="RWg0ubaqebXuxMHHFUp1-28" value="" style="edgeStyle=orthogonalEdgeStyle;rounded=0;orthogonalLoop=1;jettySize=auto;html=1;" edge="1" parent="1" source="RWg0ubaqebXuxMHHFUp1-25" target="RWg0ubaqebXuxMHHFUp1-27">
          <mxGeometry relative="1" as="geometry" />
        </mxCell>
        <mxCell id="RWg0ubaqebXuxMHHFUp1-25" value="Abertura de portas por comado de voz" style="whiteSpace=wrap;html=1;rounded=1;" vertex="1" parent="1">
          <mxGeometry x="440" y="60" width="120" height="60" as="geometry" />
        </mxCell>
        <mxCell id="RWg0ubaqebXuxMHHFUp1-30" value="" style="edgeStyle=orthogonalEdgeStyle;rounded=0;orthogonalLoop=1;jettySize=auto;html=1;" edge="1" parent="1" source="RWg0ubaqebXuxMHHFUp1-27" target="RWg0ubaqebXuxMHHFUp1-29">
          <mxGeometry relative="1" as="geometry" />
        </mxCell>
        <mxCell id="RWg0ubaqebXuxMHHFUp1-27" value="sistema identifica o usuário e se autorizado abre a porta&amp;nbsp;" style="whiteSpace=wrap;html=1;rounded=1;" vertex="1" parent="1">
          <mxGeometry x="640" y="60" width="120" height="60" as="geometry" />
        </mxCell>
        <mxCell id="RWg0ubaqebXuxMHHFUp1-29" value="sistema avisa sobre a abertura da porta por mensagem e por voz" style="whiteSpace=wrap;html=1;rounded=1;" vertex="1" parent="1">
          <mxGeometry x="640" y="-80" width="120" height="60" as="geometry" />
        </mxCell>
        <mxCell id="RWg0ubaqebXuxMHHFUp1-31" value="luzes da empresa acendem de acordo com o setor que a pessoa se encontra" style="whiteSpace=wrap;html=1;rounded=1;" vertex="1" parent="1">
          <mxGeometry x="240" y="-80" width="120" height="60" as="geometry" />
        </mxCell>
        <mxCell id="RWg0ubaqebXuxMHHFUp1-33" value="RU: 5024322" style="text;html=1;align=center;verticalAlign=middle;whiteSpace=wrap;rounded=0;" vertex="1" parent="1">
          <mxGeometry x="60" y="-220" width="200" height="50" as="geometry" />
        </mxCell>
        <mxCell id="RWg0ubaqebXuxMHHFUp1-34" value="Software de reconhecimento facial e acessibilidade" style="text;html=1;align=center;verticalAlign=middle;whiteSpace=wrap;rounded=0;" vertex="1" parent="1">
          <mxGeometry x="300" y="-210" width="190" height="30" as="geometry" />
        </mxCell>
      </root>
    </mxGraphModel>
  </diagram>
</mxfile>
